<?xml version="1.0" encoding="UTF-8"?>
<!DOCTYPE svg PUBLIC "-//W3C//DTD SVG 1.1//EN" "http://www.w3.org/Graphics/SVG/1.1/DTD/svg11.dtd">
<svg xmlns="http://www.w3.org/2000/svg" version="1.1" width="40px" height="40px" style="shape-rendering:geometricPrecision; text-rendering:geometricPrecision; image-rendering:optimizeQuality; fill-rule:evenodd; clip-rule:evenodd" xmlns:xlink="http://www.w3.org/1999/xlink">
<g><path style="opacity:0.361" fill="#d0e1ee" d="M 34.5,5.5 C 31.6926,4.34333 29.0259,4.34333 26.5,5.5C 25.8333,5.5 25.1667,5.5 24.5,5.5C 24.5,5.16667 24.5,4.83333 24.5,4.5C 27.408,3.43089 30.408,3.26423 33.5,4C 34.056,4.38258 34.3893,4.88258 34.5,5.5 Z"/></g>
<g><path style="opacity:0.439" fill="#f9e9c1" d="M 14.5,5.5 C 14.1667,6.16667 13.8333,6.83333 13.5,7.5C 12.5,7.83333 11.8333,8.5 11.5,9.5C 10.5,9.83333 9.83333,10.5 9.5,11.5C 9.16667,11.5 8.83333,11.5 8.5,11.5C 9.5,8.5 11.5,6.5 14.5,5.5 Z"/></g>
<g><path style="opacity:1" fill="#f1c31d" d="M 13.5,11.5 C 12.8333,10.8333 12.1667,10.1667 11.5,9.5C 11.8333,8.5 12.5,7.83333 13.5,7.5C 13.369,8.23891 13.5357,8.90558 14,9.5C 15.2635,7.39297 17.0968,6.39297 19.5,6.5C 19.938,10.9083 17.938,12.5749 13.5,11.5 Z"/></g>
<g><path style="opacity:1" fill="#efa222" d="M 22.5,5.5 C 23.1667,5.5 23.8333,5.5 24.5,5.5C 25.1667,5.5 25.8333,5.5 26.5,5.5C 26.5,5.83333 26.5,6.16667 26.5,6.5C 25.934,10.2989 24.2673,13.6323 21.5,16.5C 18.1,17.9862 14.7667,17.8195 11.5,16C 10.1772,15.1841 9.51056,14.0174 9.5,12.5C 10.1174,12.3893 10.6174,12.056 11,11.5C 14.1033,15.1484 17.6033,15.4818 21.5,12.5C 22.4742,10.2573 22.8076,7.92397 22.5,5.5 Z"/></g>
<g><path style="opacity:1" fill="#ed9623" d="M 26.5,6.5 C 27.1667,6.5 27.5,6.83333 27.5,7.5C 27.6602,9.19919 27.4935,10.8659 27,12.5C 24.9829,14.6844 23.1495,17.0177 21.5,19.5C 21.1667,19.5 20.8333,19.5 20.5,19.5C 20.5,19.1667 20.5,18.8333 20.5,18.5C 20.8333,17.8333 21.1667,17.1667 21.5,16.5C 24.2673,13.6323 25.934,10.2989 26.5,6.5 Z"/></g>
<g><path style="opacity:0.914" fill="#4dacdd" d="M 34.5,5.5 C 35.299,8.42994 35.6323,11.4299 35.5,14.5C 34.8333,12.8333 34.1667,11.1667 33.5,9.5C 32.3951,8.39952 31.0618,7.73286 29.5,7.5C 28.8333,7.5 28.1667,7.5 27.5,7.5C 27.5,6.83333 27.1667,6.5 26.5,6.5C 26.5,6.16667 26.5,5.83333 26.5,5.5C 29.0259,4.34333 31.6926,4.34333 34.5,5.5 Z"/></g>
<g><path style="opacity:0.122" fill="#dbdfde" d="M 29.5,7.5 C 31.0618,7.73286 32.3951,8.39952 33.5,9.5C 33.7947,11.7354 33.4614,13.7354 32.5,15.5C 32.9465,12.9899 32.2798,10.9899 30.5,9.5C 30.1667,8.83333 29.8333,8.16667 29.5,7.5 Z"/></g>
<g><path style="opacity:1" fill="#f1b221" d="M 22.5,5.5 C 22.8076,7.92397 22.4742,10.2573 21.5,12.5C 17.6033,15.4818 14.1033,15.1484 11,11.5C 10.6174,12.056 10.1174,12.3893 9.5,12.5C 9.5,12.1667 9.5,11.8333 9.5,11.5C 9.83333,10.5 10.5,9.83333 11.5,9.5C 12.1667,10.1667 12.8333,10.8333 13.5,11.5C 15.2884,12.6225 17.2884,12.7891 19.5,12C 19.8592,9.36954 20.8592,7.20287 22.5,5.5 Z"/></g>
<g><path style="opacity:1" fill="#e88124" d="M 30.5,9.5 C 30.348,15.5026 27.5147,19.8359 22,22.5C 21.5357,21.9056 21.369,21.2389 21.5,20.5C 26.468,18.2211 29.468,14.5544 30.5,9.5 Z"/></g>
<g><path style="opacity:1" fill="#f6c74f" d="M 24.5,4.5 C 24.5,4.83333 24.5,5.16667 24.5,5.5C 23.8333,5.5 23.1667,5.5 22.5,5.5C 20.8592,7.20287 19.8592,9.36954 19.5,12C 17.2884,12.7891 15.2884,12.6225 13.5,11.5C 17.938,12.5749 19.938,10.9083 19.5,6.5C 17.0968,6.39297 15.2635,7.39297 14,9.5C 13.5357,8.90558 13.369,8.23891 13.5,7.5C 13.8333,6.83333 14.1667,6.16667 14.5,5.5C 17.7076,3.46862 21.041,3.13529 24.5,4.5 Z"/></g>
<g><path style="opacity:0.569" fill="#bbdeee" d="M 34.5,5.5 C 36.876,6.51204 37.876,8.34537 37.5,11C 37.6068,13.2206 36.9402,15.0539 35.5,16.5C 35.5,15.8333 35.5,15.1667 35.5,14.5C 35.6323,11.4299 35.299,8.42994 34.5,5.5 Z"/></g>
<g><path style="opacity:1" fill="#ee972e" d="M 8.5,11.5 C 8.83333,11.5 9.16667,11.5 9.5,11.5C 9.5,11.8333 9.5,12.1667 9.5,12.5C 9.51056,14.0174 10.1772,15.1841 11.5,16C 14.7667,17.8195 18.1,17.9862 21.5,16.5C 21.1667,17.1667 20.8333,17.8333 20.5,18.5C 18.3193,18.2837 16.6526,19.117 15.5,21C 13.1902,21.4966 10.8568,21.6633 8.5,21.5C 8.5,18.1667 8.5,14.8333 8.5,11.5 Z"/></g>
<g><path style="opacity:1" fill="#eb8c27" d="M 27.5,7.5 C 28.1667,7.5 28.8333,7.5 29.5,7.5C 29.8333,8.16667 30.1667,8.83333 30.5,9.5C 29.468,14.5544 26.468,18.2211 21.5,20.5C 21.5,20.1667 21.5,19.8333 21.5,19.5C 23.1495,17.0177 24.9829,14.6844 27,12.5C 27.4935,10.8659 27.6602,9.19919 27.5,7.5 Z"/></g>
<g><path style="opacity:0.424" fill="#f3dcc2" d="M 8.5,11.5 C 8.5,14.8333 8.5,18.1667 8.5,21.5C 8.16667,21.5 7.83333,21.5 7.5,21.5C 6.15168,17.9237 6.48502,14.5904 8.5,11.5 Z"/></g>
<g><path style="opacity:0.906" fill="#7cbbdb" d="M 33.5,9.5 C 34.1667,11.1667 34.8333,12.8333 35.5,14.5C 35.5,15.1667 35.5,15.8333 35.5,16.5C 34.0256,17.4363 33.0256,18.7697 32.5,20.5C 31.5,21.1667 30.5,21.8333 29.5,22.5C 29.0618,22.5654 28.7284,22.3988 28.5,22C 30.1412,20.871 31.1412,19.371 31.5,17.5C 31.3284,16.5084 31.6618,15.8417 32.5,15.5C 33.4614,13.7354 33.7947,11.7354 33.5,9.5 Z"/></g>
<g><path style="opacity:1" fill="#e87e32" d="M 30.5,9.5 C 32.2798,10.9899 32.9465,12.9899 32.5,15.5C 31.6618,15.8417 31.3284,16.5084 31.5,17.5C 27.7852,21.3797 23.6186,24.713 19,27.5C 18.51,26.2068 18.3433,24.8734 18.5,23.5C 19.1667,23.5 19.5,23.1667 19.5,22.5C 20.404,21.791 20.7373,20.791 20.5,19.5C 20.8333,19.5 21.1667,19.5 21.5,19.5C 21.5,19.8333 21.5,20.1667 21.5,20.5C 21.369,21.2389 21.5357,21.9056 22,22.5C 27.5147,19.8359 30.348,15.5026 30.5,9.5 Z"/></g>
<g><path style="opacity:0.231" fill="#f3eae5" d="M 35.5,16.5 C 35.0652,19.1573 34.0652,21.4907 32.5,23.5C 32.5,22.5 32.5,21.5 32.5,20.5C 33.0256,18.7697 34.0256,17.4363 35.5,16.5 Z"/></g>
<g><path style="opacity:0.592" fill="#c9d5d8" d="M 20.5,18.5 C 20.5,18.8333 20.5,19.1667 20.5,19.5C 20.7373,20.791 20.404,21.791 19.5,22.5C 19.6309,21.6236 19.2975,20.9569 18.5,20.5C 16.8273,22.0863 14.8273,22.7529 12.5,22.5C 9.8127,22.3359 7.14603,22.5026 4.5,23C 5.05596,23.3826 5.38929,23.8826 5.5,24.5C 4.00475,24.5852 3.00475,23.9185 2.5,22.5C 4.04533,21.5481 5.71199,21.2148 7.5,21.5C 7.83333,21.5 8.16667,21.5 8.5,21.5C 10.8568,21.6633 13.1902,21.4966 15.5,21C 16.6526,19.117 18.3193,18.2837 20.5,18.5 Z"/></g>
<g><path style="opacity:0.651" fill="#bcb8bc" d="M 31.5,17.5 C 31.1412,19.371 30.1412,20.871 28.5,22C 28.7284,22.3988 29.0618,22.5654 29.5,22.5C 27.0536,25.2307 24.0536,27.2307 20.5,28.5C 19.5,28.5 18.5,28.5 17.5,28.5C 17.5,27.1667 17.5,25.8333 17.5,24.5C 17.5,23.8333 17.8333,23.5 18.5,23.5C 18.3433,24.8734 18.51,26.2068 19,27.5C 23.6186,24.713 27.7852,21.3797 31.5,17.5 Z"/></g>
<g><path style="opacity:1" fill="#569ed8" d="M 12.5,22.5 C 13.209,23.404 14.209,23.7373 15.5,23.5C 15.6621,25.5273 15.4955,27.5273 15,29.5C 14.6174,28.944 14.1174,28.6107 13.5,28.5C 11.1667,29.8333 8.83333,31.1667 6.5,32.5C 6.38929,31.8826 6.05596,31.3826 5.5,31C 13.2606,28.1654 13.2606,25.9987 5.5,24.5C 5.38929,23.8826 5.05596,23.3826 4.5,23C 7.14603,22.5026 9.8127,22.3359 12.5,22.5 Z"/></g>
<g><path style="opacity:0.024" fill="#faece5" d="M 32.5,23.5 C 31.2938,27.3651 28.6271,29.3651 24.5,29.5C 27.4256,27.9162 30.0922,25.9162 32.5,23.5 Z"/></g>
<g><path style="opacity:0.986" fill="#e78047" d="M 32.5,20.5 C 32.5,21.5 32.5,22.5 32.5,23.5C 30.0922,25.9162 27.4256,27.9162 24.5,29.5C 22.901,29.7678 21.5676,29.4345 20.5,28.5C 24.0536,27.2307 27.0536,25.2307 29.5,22.5C 30.5,21.8333 31.5,21.1667 32.5,20.5 Z"/></g>
<g><path style="opacity:0.153" fill="#dde9f5" d="M 5.5,24.5 C 13.2606,25.9987 13.2606,28.1654 5.5,31C 6.05596,31.3826 6.38929,31.8826 6.5,32.5C 5.00475,32.5852 4.00475,31.9185 3.5,30.5C 5.86483,29.9149 7.86483,28.7482 9.5,27C 7.93356,26.3918 6.60023,25.5585 5.5,24.5 Z"/></g>
<g><path style="opacity:0.039" fill="#dbe7f2" d="M 13.5,28.5 C 14.4552,30.7457 15.1218,33.079 15.5,35.5C 14.3556,33.8998 13.1889,32.2331 12,30.5C 10.7308,31.9047 10.2308,33.5714 10.5,35.5C 8.38115,35.5323 7.04782,34.5323 6.5,32.5C 8.83333,31.1667 11.1667,29.8333 13.5,28.5 Z"/></g>
<g><path style="opacity:0.984" fill="#5db4e3" d="M 19.5,22.5 C 19.5,23.1667 19.1667,23.5 18.5,23.5C 17.8333,23.5 17.5,23.8333 17.5,24.5C 16.498,26.9915 16.498,29.6582 17.5,32.5C 17.3601,34.0296 16.6935,35.0296 15.5,35.5C 15.1218,33.079 14.4552,30.7457 13.5,28.5C 14.1174,28.6107 14.6174,28.944 15,29.5C 15.4955,27.5273 15.6621,25.5273 15.5,23.5C 14.209,23.7373 13.209,23.404 12.5,22.5C 14.8273,22.7529 16.8273,22.0863 18.5,20.5C 19.2975,20.9569 19.6309,21.6236 19.5,22.5 Z"/></g>
<g><path style="opacity:0.176" fill="#dce1e4" d="M 17.5,24.5 C 17.5,25.8333 17.5,27.1667 17.5,28.5C 18.5,28.5 19.5,28.5 20.5,28.5C 21.5676,29.4345 22.901,29.7678 24.5,29.5C 22.7078,30.3091 20.7078,30.8091 18.5,31C 18.8541,32.6255 18.8541,34.4588 18.5,36.5C 17.209,36.7373 16.209,36.404 15.5,35.5C 16.6935,35.0296 17.3601,34.0296 17.5,32.5C 16.498,29.6582 16.498,26.9915 17.5,24.5 Z"/></g>
</svg>
